<?xml version="1.0" encoding="utf-8"?>
<svg width="100px" height="100px" viewBox="0 0 100 100" version="1.1" xmlns:xlink="http://www.w3.org/1999/xlink" xmlns="http://www.w3.org/2000/svg">
  <defs>
    <path d="M0 0L100 0L100 100L0 100L0 0Z" id="path_1" />
    <clipPath id="mask_1">
      <use xlink:href="#path_1" />
    </clipPath>
  </defs>
  <g id="scales">
    <path d="M0 0L100 0L100 100L0 100L0 0Z" id="Background" fill="#FFFFFF" fill-opacity="0" fill-rule="evenodd" stroke="none" />
    <g clip-path="url(#mask_1)">
      <path d="M96.8356 53.1804L96.1995 53.1804L87.0808 28.5436C89.506 28.0333 91.7664 26.8317 93.5412 25.0571C94.777 23.8215 94.777 21.8178 93.5412 20.582C92.3056 19.3464 90.3019 19.3464 89.0661 20.582C87.7974 21.8507 86.0449 22.5454 84.2486 22.4905C82.4913 22.4359 80.8922 21.691 79.7457 20.3925C76.1749 16.3486 71.0349 14.0293 65.6434 14.0293C60.8588 14.0293 56.4872 15.8265 53.1646 18.7795L53.1646 10.6544C53.1646 8.90676 51.7478 7.48995 50.0002 7.48995C48.2526 7.48995 46.8358 8.90676 46.8358 10.6544L46.8358 18.7793C43.5129 15.8263 39.1416 14.0291 34.357 14.0291C28.9657 14.0291 23.8257 16.3484 20.2545 20.3925C19.108 21.6908 17.5089 22.4359 15.7518 22.4903C13.9542 22.5454 12.2028 21.8503 10.9341 20.5817C9.69849 19.3461 7.69478 19.3461 6.45897 20.5817C5.22317 21.8173 5.22317 23.821 6.45897 25.0569C8.23336 26.8312 10.4944 28.0341 12.919 28.5445L3.80066 53.1804L3.16441 53.1804C1.41681 53.1804 0 54.5973 0 56.3449L0 57.0657C0 65.7389 7.05621 72.7954 15.7299 72.7954L16.1265 72.7954C24.7997 72.7954 31.8561 65.7391 31.8561 57.0657L31.8561 56.3448C31.8561 54.5973 30.4393 53.1804 28.6917 53.1804L28.0557 53.1804L18.8772 28.3835C21.2321 27.7521 23.3455 26.4538 24.9986 24.5816C27.3686 21.8973 30.7796 20.3579 34.3568 20.3579C41.2377 20.3579 46.8356 25.9558 46.8356 32.8365L46.8356 77.366C42.5421 78.501 39.1556 81.8878 38.0204 86.1812L34.3566 86.1812C32.609 86.1812 31.1922 87.598 31.1922 89.3456C31.1922 91.0932 32.609 92.5101 34.3566 92.5101L65.6432 92.5101C67.3908 92.5101 68.8076 91.0932 68.8076 89.3456C68.8076 87.598 67.3908 86.1812 65.6432 86.1812L61.9794 86.1812C60.8444 81.8878 57.4577 78.5012 53.1642 77.366L53.1642 32.8364C53.1642 25.9558 58.762 20.3579 65.643 20.3579C69.2202 20.3579 72.631 21.8973 75.001 24.5816C76.654 26.4538 78.7674 27.7523 81.1224 28.3835L71.9443 53.1804L71.3083 53.1804C69.5607 53.1804 68.1439 54.5973 68.1439 56.3448L68.1439 57.0657C68.1439 65.7389 75.2001 72.7954 83.8735 72.7954L84.2701 72.7954C92.9434 72.7954 99.9998 65.7391 99.9998 57.0657L99.9998 56.3448C100 54.5973 98.5834 53.1804 96.8356 53.1804L96.8356 53.1804ZM16.1263 66.4665L15.7297 66.4665C11.3908 66.4665 7.72897 63.5122 6.65075 59.5093L25.2049 59.5093C24.1267 63.5122 20.4653 66.4665 16.1263 66.4665L16.1263 66.4665ZM8.2994 53.1804L15.928 32.5702L23.5565 53.1804L8.2994 53.1804L8.2994 53.1804ZM55.1681 86.1812L44.8323 86.1812C45.8996 84.4448 47.8168 83.2839 50.0002 83.2839C52.1837 83.2839 54.1007 84.4448 55.1681 86.1812L55.1681 86.1812ZM84.0723 32.5702L91.7008 53.1804L76.4437 53.1804L84.0723 32.5702L84.0723 32.5702ZM84.2706 66.4665L83.874 66.4665C79.5351 66.4665 75.8735 63.5122 74.7953 59.5093L93.3493 59.5093C92.271 63.5122 88.6094 66.4665 84.2706 66.4665L84.2706 66.4665Z" id="Shape" fill="#969696" fill-rule="evenodd" stroke="none" />
    </g>
  </g>
</svg>